HIERARCHY
ROOT Root
{
	OFFSET -0.000007 0.000445 0.000000
	CHANNELS 6 Xposition Yposition Zposition Xrotation Yrotation Zrotation
	JOINT Body
	{
		OFFSET 0.000000 0.000000 2.143352
		CHANNELS 6 Xposition Yposition Zposition Xrotation Yrotation Zrotation
		JOINT Wool
		{
			OFFSET 0.000000 0.000000 1.211460
			CHANNELS 6 Xposition Yposition Zposition Xrotation Yrotation Zrotation
			End Site
			{
				OFFSET 0.000000 0.000000 1.000000
			}
		}
		JOINT Head
		{
			OFFSET 2.050163 0.000000 1.211460
			CHANNELS 6 Xposition Yposition Zposition Xrotation Yrotation Zrotation
			End Site
			{
				OFFSET 0.000000 0.000000 1.000000
			}
		}
		JOINT Tail
		{
			OFFSET -1.739532 0.000000 1.800304
			CHANNELS 6 Xposition Yposition Zposition Xrotation Yrotation Zrotation
			End Site
			{
				OFFSET 0.000000 0.000000 -1.096757
			}
		}
		JOINT Femur.BR
		{
			OFFSET -1.458411 -0.841292 0.979440
			CHANNELS 6 Xposition Yposition Zposition Xrotation Yrotation Zrotation
			JOINT Leg.BR
			{
				OFFSET 0.308560 0.000000 -0.752393
				CHANNELS 3 Xrotation Yrotation Zrotation
				End Site
				{
					OFFSET -0.667856 0.000000 -1.289117
				}
			}
		}
		JOINT Sternum.R
		{
			OFFSET 1.436668 -0.841292 1.079381
			CHANNELS 6 Xposition Yposition Zposition Xrotation Yrotation Zrotation
			JOINT Leg.FR
			{
				OFFSET -0.225208 0.000000 -0.824895
				CHANNELS 3 Xrotation Yrotation Zrotation
				End Site
				{
					OFFSET 0.310631 0.000000 -1.397838
				}
			}
		}
		JOINT Femur.BL
		{
			OFFSET -1.458411 0.827921 0.979440
			CHANNELS 6 Xposition Yposition Zposition Xrotation Yrotation Zrotation
			JOINT Leg.BL
			{
				OFFSET 0.308560 -0.000000 -0.752393
				CHANNELS 3 Xrotation Yrotation Zrotation
				End Site
				{
					OFFSET -0.667856 -0.000000 -1.289117
				}
			}
		}
		JOINT Sternum.L
		{
			OFFSET 1.436668 0.827921 1.079381
			CHANNELS 6 Xposition Yposition Zposition Xrotation Yrotation Zrotation
			JOINT Leg.FL
			{
				OFFSET -0.225208 0.000000 -0.824895
				CHANNELS 3 Xrotation Yrotation Zrotation
				End Site
				{
					OFFSET 0.310631 0.000000 -1.397838
				}
			}
		}
	}
	JOINT Leg.FR.003
	{
		OFFSET 1.522091 -0.841292 1.000000
		CHANNELS 6 Xposition Yposition Zposition Xrotation Yrotation Zrotation
		JOINT Hoof.FR
		{
			OFFSET 0.000000 0.000000 0.000000
			CHANNELS 6 Xposition Yposition Zposition Xrotation Yrotation Zrotation
			End Site
			{
				OFFSET 0.528072 0.000000 -0.947424
			}
		}
	}
	JOINT Leg.FL.001
	{
		OFFSET 1.522091 0.827921 1.000000
		CHANNELS 6 Xposition Yposition Zposition Xrotation Yrotation Zrotation
		JOINT Hoof.FL
		{
			OFFSET 0.000000 0.000000 0.000000
			CHANNELS 6 Xposition Yposition Zposition Xrotation Yrotation Zrotation
			End Site
			{
				OFFSET 0.528072 -0.000000 -0.947424
			}
		}
	}
	JOINT Leg.BR.001
	{
		OFFSET -1.817707 -0.841292 1.081282
		CHANNELS 6 Xposition Yposition Zposition Xrotation Yrotation Zrotation
		JOINT Hoof.BR
		{
			OFFSET 0.000000 0.000000 0.000000
			CHANNELS 6 Xposition Yposition Zposition Xrotation Yrotation Zrotation
			End Site
			{
				OFFSET 0.590199 0.000000 -1.040613
			}
		}
	}
	JOINT Leg.BL.001
	{
		OFFSET -1.817707 0.827921 1.081282
		CHANNELS 6 Xposition Yposition Zposition Xrotation Yrotation Zrotation
		JOINT Hoof.BL
		{
			OFFSET 0.000000 0.000000 0.000000
			CHANNELS 6 Xposition Yposition Zposition Xrotation Yrotation Zrotation
			End Site
			{
				OFFSET 0.590198 0.000000 -1.040613
			}
		}
	}
}
MOTION
Frames: 11
Frame Time: 0.041667
-0.000007 0.000445 0.000000 -0.000000 0.000000 -0.000000 0.000000 0.000000 2.059041 -0.000000 0.000000 -0.000000 0.000000 0.000000 0.875441 -0.000000 0.000000 -0.000000 2.050163 0.000000 1.066926 -0.000000 0.000000 -0.000000 -1.739532 0.000000 1.800304 0.000003 11.347803 -0.000000 -1.458411 -0.841292 0.979440 -0.000001 -25.814640 0.000001 0.000000 -17.850775 0.000001 1.436668 -0.841292 1.079381 1.391322 16.277709 -0.065043 1.058886 -0.867561 0.216678 -1.458411 0.827921 0.979440 0.000008 28.026961 -0.000006 0.000000 -17.670628 0.000001 1.436668 0.827921 1.079381 -0.000002 -38.137297 -0.000001 0.000001 27.390988 0.000000 0.917396 -0.762092 0.981118 0.000006 -1.244724 0.000004 0.000000 0.000000 0.000000 -0.000000 -0.000000 0.000000 2.337904 0.827921 1.027818 0.000003 -31.566529 0.000007 -0.000000 0.000000 0.000000 0.000000 -0.000002 0.000000 -0.446056 -0.841292 1.101891 -0.000004 -23.606189 0.000000 -0.000000 0.000000 0.000000 0.000000 -0.000002 -0.000000 -2.428294 0.827921 1.081282 -0.000000 0.000000 -0.000000 0.000000 -0.000000 -0.000000 -0.000000 0.000000 0.000000 
-0.000007 0.000445 0.000000 -0.000000 0.000000 -0.000000 0.000000 0.000000 2.060910 -0.000000 0.000000 -0.000000 0.000000 0.000000 0.878654 -0.000000 0.000000 -0.000000 2.050163 0.000000 1.082317 -0.000000 0.000000 -0.000000 -1.739532 0.000000 1.800304 0.000003 11.096616 -0.000000 -1.458411 -0.841291 0.979440 -0.000003 -26.073650 0.000000 -0.000001 -16.245462 0.000002 1.436668 -0.841292 1.079381 1.353840 16.171306 -0.057584 1.045296 -1.244128 0.214554 -1.458411 0.827921 0.979440 0.000008 27.133326 -0.000006 0.000001 -16.822250 0.000001 1.436668 0.827921 1.079381 -0.000004 -37.639274 -0.000001 0.000001 27.393621 -0.000000 0.930801 -0.763847 0.981537 0.000006 -1.217114 0.000004 0.000000 0.000000 0.000000 0.000000 0.000002 0.000000 2.319818 0.827921 1.021058 0.000003 -30.622836 0.000007 -0.000000 -0.000000 0.000000 -0.000000 0.000000 -0.000000 -0.476464 -0.841292 1.097326 -0.000004 -22.979687 0.000000 0.000000 0.000000 -0.000000 -0.000000 0.000000 0.000000 -2.414758 0.827921 1.081282 -0.000000 0.000000 -0.000000 0.000000 -0.000000 -0.000000 -0.000000 0.000000 0.000000 
-0.000007 0.000445 0.000000 -0.000000 0.000000 -0.000000 0.000000 0.000000 2.066535 -0.000000 0.000000 -0.000000 0.000000 0.000000 0.888995 -0.000000 0.000000 -0.000000 2.050163 0.000000 1.093253 -0.000000 0.000000 -0.000000 -1.739532 0.000000 1.800304 0.000003 10.340341 -0.000000 -1.458411 -0.841292 0.979440 -0.000003 -27.474755 0.000001 -0.000003 -10.612276 0.000001 1.436668 -0.841292 1.079381 1.246762 15.766213 -0.039085 0.995262 -2.247866 0.207108 -1.458411 0.827921 0.979440 0.000007 24.566246 -0.000005 0.000001 -14.473123 0.000001 1.436668 0.827921 1.079381 -0.000003 -34.613090 -0.000001 0.000002 24.749313 -0.000000 0.971147 -0.769132 0.982796 0.000006 -1.134059 0.000004 0.000000 0.000000 0.000000 0.000000 -0.000000 0.000000 2.265388 0.827921 1.015128 0.000002 -28.396780 0.000006 -0.000000 -0.000000 -0.000000 0.000000 0.000002 -0.000000 -0.567980 -0.841292 1.094194 -0.000003 -21.353827 0.000001 -0.000000 0.000000 0.000000 -0.000000 -0.000002 -0.000000 -2.374020 0.827921 1.081282 -0.000000 0.000000 -0.000000 0.000000 -0.000000 -0.000000 -0.000000 0.000000 0.000000 
-0.000007 0.000445 0.000000 -0.000000 0.000000 -0.000000 0.000000 0.000000 2.075681 -0.000000 0.000000 -0.000000 0.000000 0.000000 0.907386 -0.000000 0.000000 -0.000000 2.050163 0.000000 1.100536 -0.000000 0.000000 -0.000000 -1.739532 0.000000 1.800304 0.000003 9.109848 -0.000000 -1.458411 -0.841292 0.979440 -0.000001 -28.386348 0.000001 -0.000002 -3.444158 0.000001 1.436668 -0.841292 1.079381 1.089135 14.857617 -0.020273 0.887814 -3.498058 0.191978 -1.458411 0.827921 0.979440 0.000008 20.717366 -0.000005 0.000002 -11.200007 0.000000 1.436668 0.827921 1.079381 -0.000003 -24.990411 -0.000001 -0.000000 12.929768 -0.000000 1.036746 -0.777723 0.984845 0.000006 -0.999028 0.000004 0.000000 -0.000000 -0.000000 -0.000000 0.000002 0.000000 2.176886 0.827921 1.010168 0.000002 -24.963995 0.000006 -0.000000 0.000000 -0.000000 -0.000000 0.000000 -0.000000 -0.716781 -0.841292 1.092406 -0.000003 -18.789584 0.000001 -0.000000 0.000000 0.000000 -0.000000 0.000002 0.000000 -2.307782 0.827921 1.081282 -0.000000 0.000000 -0.000000 0.000000 -0.000000 -0.000000 -0.000000 0.000000 0.000000 
-0.000007 0.000445 0.000000 -0.000000 0.000000 -0.000000 0.000000 0.000000 2.087644 -0.000000 0.000000 -0.000000 0.000000 0.000000 0.934306 -0.000000 0.000000 -0.000000 2.050163 0.000000 1.105693 -0.000000 0.000000 -0.000000 -1.739532 0.000000 1.800304 0.000002 7.499266 -0.000000 -1.458411 -0.841292 0.979440 0.000000 -27.452743 0.000001 -0.000002 2.973996 0.000000 1.436668 -0.841292 1.079381 0.895935 13.248427 -0.006517 0.727137 -4.487792 0.164172 -1.458411 0.827921 0.979440 0.000004 16.162739 -0.000003 0.000000 -7.731182 0.000000 1.436668 0.827921 1.079381 -0.000002 -17.846171 -0.000000 -0.000001 6.216670 -0.000000 1.122546 -0.788961 0.987524 0.000006 -0.822417 0.000004 0.000000 0.000000 0.000000 -0.000000 0.000003 0.000000 2.061130 0.827921 1.006279 0.000002 -20.548098 0.000006 -0.000000 -0.000000 -0.000000 -0.000000 -0.000002 0.000000 -0.911404 -0.841292 1.091693 -0.000002 -15.467085 0.000001 0.000000 0.000000 0.000000 0.000000 0.000002 0.000000 -2.221145 0.827921 1.081282 -0.000000 0.000000 -0.000000 0.000000 -0.000000 -0.000000 -0.000000 0.000000 0.000000 
-0.000007 0.000445 0.000000 -0.000000 0.000000 -0.000000 0.000000 0.000000 2.101197 -0.000000 0.000000 -0.000000 0.000000 0.000000 0.969460 -0.000000 0.000000 -0.000000 2.050163 0.000000 1.110958 -0.000000 0.000000 -0.000000 -1.739532 0.000000 1.800304 0.000002 5.673900 -0.000000 -1.458411 -0.841292 0.979440 -0.000001 -24.075978 0.000001 -0.000002 7.090106 0.000000 1.436668 -0.841292 1.079381 0.685357 10.897026 0.000028 0.533229 -4.789758 0.125248 -1.458411 0.827921 0.979440 0.000004 11.530221 -0.000002 0.000001 -4.695073 -0.000000 1.436668 0.827921 1.079381 -0.000002 -11.722558 -0.000000 -0.000000 1.826514 -0.000000 1.219743 -0.801692 0.990559 0.000006 -0.622348 0.000004 0.000000 0.000000 0.000000 0.000000 -0.000002 0.000000 1.929998 0.827921 1.003477 0.000001 -15.561823 0.000006 -0.000000 -0.000000 0.000000 -0.000000 -0.000002 0.000000 -1.131881 -0.841292 1.091587 -0.000002 -11.709915 0.000001 0.000000 0.000000 -0.000000 -0.000000 0.000000 0.000000 -2.123001 0.827921 1.081282 -0.000000 0.000000 -0.000000 0.000000 -0.000000 -0.000000 -0.000000 0.000000 0.000000 
-0.000007 0.000445 0.000000 -0.000000 0.000000 -0.000000 0.000000 0.000000 2.114748 -0.000000 0.000000 -0.000000 0.000000 0.000000 1.011632 -0.000000 0.000000 -0.000000 2.050163 0.000000 1.118900 -0.000000 0.000000 -0.000000 -1.739532 0.000000 1.800304 0.000002 3.848538 -0.000000 -1.458411 -0.841291 0.979440 0.000001 -18.583681 0.000001 -0.000002 8.267250 -0.000001 1.436668 -0.841292 1.079382 0.474427 8.005834 0.002082 0.342334 -4.240660 0.082829 -1.458411 0.827921 0.979440 0.000002 7.374329 -0.000001 0.000001 -2.457769 -0.000000 1.436668 0.827921 1.079381 -0.000001 -6.872332 -0.000000 -0.000000 -0.485191 -0.000000 1.316941 -0.814422 0.993594 0.000006 -0.422278 0.000004 -0.000000 0.000000 0.000000 -0.000000 -0.000000 0.000000 1.798865 0.827921 1.001664 0.000001 -10.568223 0.000006 -0.000000 -0.000000 -0.000000 -0.000000 -0.000002 0.000000 -1.352359 -0.841292 1.091480 -0.000001 -7.949445 0.000002 0.000000 0.000000 -0.000000 -0.000000 0.000000 0.000000 -2.024856 0.827921 1.081282 -0.000000 0.000000 -0.000000 0.000000 -0.000000 -0.000000 -0.000000 0.000000 0.000000 
-0.000007 0.000445 0.000000 -0.000000 0.000000 -0.000000 0.000000 0.000000 2.126711 -0.000000 0.000000 -0.000000 0.000000 0.000000 1.058897 -0.000000 0.000000 -0.000000 2.050163 0.000000 1.131821 -0.000000 0.000000 -0.000000 -1.739532 0.000000 1.800304 0.000001 2.237954 -0.000000 -1.458411 -0.841292 0.979440 0.000000 -12.105438 0.000000 -0.000001 6.896231 -0.000000 1.436668 -0.841292 1.079381 0.282108 4.994211 0.002565 0.186708 -3.017750 0.045833 -1.458411 0.827921 0.979440 0.000003 4.065979 -0.000001 0.000001 -1.073509 -0.000001 1.436668 0.827921 1.079381 -0.000002 -3.454130 -0.000000 -0.000001 -1.137661 -0.000000 1.402741 -0.825660 0.996273 0.000006 -0.245668 0.000004 0.000000 -0.000000 0.000000 0.000000 -0.000000 0.000000 1.683109 0.827921 1.000644 0.000001 -6.151291 0.000006 -0.000000 0.000000 0.000000 -0.000000 0.000000 0.000000 -1.546982 -0.841292 1.090767 -0.000001 -4.626056 0.000002 -0.000000 0.000000 0.000000 -0.000000 0.000003 -0.000000 -1.938220 0.827921 1.081282 -0.000000 0.000000 -0.000000 0.000000 -0.000000 -0.000000 -0.000000 0.000000 0.000000 
-0.000007 0.000445 0.000000 -0.000000 0.000000 -0.000000 0.000000 0.000000 2.135858 -0.000000 0.000000 -0.000000 0.000000 0.000000 1.109123 -0.000000 0.000000 -0.000000 2.050163 0.000000 1.151253 -0.000000 0.000000 -0.000000 -1.739532 0.000000 1.800304 0.000001 1.007459 -0.000000 -1.458411 -0.841291 0.979440 0.000002 -6.089701 -0.000000 0.000000 4.157362 -0.000001 1.436668 -0.841292 1.079381 0.127911 2.376172 0.002866 0.081670 -1.568068 0.019332 -1.458411 0.827921 0.979440 0.000001 1.754832 -0.000000 -0.000001 -0.364168 -0.000000 1.436668 0.827921 1.079381 -0.000002 -1.363961 -0.000000 -0.000001 -0.810609 -0.000000 1.468340 -0.834252 0.998321 0.000006 -0.110640 0.000004 0.000000 -0.000000 -0.000000 0.000000 0.000002 0.000000 1.594608 0.827921 1.000172 0.000001 -2.770668 0.000006 -0.000000 0.000000 -0.000000 -0.000000 -0.000002 0.000000 -1.695783 -0.841292 1.088979 -0.000000 -2.083563 0.000002 0.000000 -0.000000 0.000000 -0.000000 0.000000 0.000000 -1.871982 0.827921 1.081282 -0.000000 0.000000 -0.000000 0.000000 -0.000000 -0.000000 -0.000000 0.000000 0.000000 
-0.000007 0.000445 0.000000 -0.000000 0.000000 -0.000000 0.000000 0.000000 2.141483 -0.000000 0.000000 -0.000000 0.000000 0.000000 1.160439 -0.000000 0.000000 -0.000000 2.050163 0.000000 1.177825 -0.000000 0.000000 -0.000000 -1.739532 0.000000 1.800304 0.000001 0.251187 -0.000000 -1.458411 -0.841291 0.979440 0.000002 -1.794968 -0.000000 -0.000001 1.484616 -0.000001 1.436668 -0.841292 1.079381 0.031922 0.613856 0.001103 0.020184 -0.426106 0.004559 -1.458411 0.827921 0.979440 -0.000000 0.426097 0.000000 0.000000 -0.072982 0.000000 1.436668 0.827921 1.079381 -0.000001 -0.310190 -0.000000 -0.000001 -0.248511 -0.000000 1.508685 -0.839536 0.999581 0.000006 -0.027594 0.000004 0.000000 -0.000000 0.000000 -0.000000 -0.000000 -0.000000 1.540177 0.827921 1.000019 0.000000 -0.690993 0.000005 -0.000000 -0.000000 -0.000000 -0.000000 0.000000 0.000000 -1.787299 -0.841292 1.085847 -0.000000 -0.519642 0.000002 0.000000 0.000000 -0.000000 -0.000000 0.000002 0.000000 -1.831244 0.827921 1.081282 -0.000000 0.000000 -0.000000 0.000000 0.000000 -0.000000 -0.000000 0.000000 0.000000 
-0.000007 0.000445 0.000000 -0.000000 0.000000 -0.000000 0.000000 0.000000 2.143352 -0.000000 0.000000 -0.000000 0.000000 0.000000 1.211460 -0.000000 0.000000 -0.000000 2.050163 0.000000 1.211460 -0.000000 0.000000 -0.000000 -1.739532 0.000000 1.800304 -0.000000 0.000000 -0.000000 -1.458411 -0.841291 0.979440 0.000000 -0.000090 -0.000000 -0.000001 0.000145 -0.000000 1.436668 -0.841292 1.079381 0.000002 -0.000005 0.000000 -0.000000 0.000061 0.000000 -1.458411 0.827921 0.979440 0.000002 0.000188 -0.000000 0.000000 -0.000301 -0.000001 1.436668 0.827921 1.079381 -0.000003 0.000012 -0.000000 -0.000002 0.000036 -0.000000 1.522091 -0.841292 1.000000 0.000000 0.000000 -0.000000 -0.000000 0.000000 0.000000 0.000000 -0.000000 -0.000000 1.522091 0.827921 1.000000 -0.000000 0.000000 0.000000 -0.000000 -0.000000 0.000000 -0.000000 0.000000 0.000000 -1.817707 -0.841292 1.081282 -0.000000 0.000000 -0.000000 0.000000 0.000000 -0.000000 0.000000 0.000000 -0.000000 -1.817707 0.827921 1.081282 -0.000000 0.000000 -0.000000 0.000000 -0.000000 -0.000000 -0.000000 0.000000 0.000000 
